<?xml version="1.0" standalone="no"?>
<!DOCTYPE svg PUBLIC "-//W3C//DTD SVG 20010904//EN"
 "http://www.w3.org/TR/2001/REC-SVG-20010904/DTD/svg10.dtd">
<svg version="1.0" xmlns="http://www.w3.org/2000/svg"
 width="260.000000pt" height="260.000000pt" viewBox="0 0 260.000000 260.000000"
 preserveAspectRatio="xMidYMid meet">
<metadata>
Created by potrace 1.14, written by Peter Selinger 2001-2017
</metadata>
<g transform="translate(0.000000,260.000000) scale(0.100000,-0.100000)"
fill="#000000" stroke="none">
<path d="M810 1942 c0 -5 -8 -18 -17 -30 -47 -54 -52 -62 -45 -62 4 0 2 -4 -4
-8 -9 -6 -251 -345 -279 -391 -6 -9 -77 -117 -158 -239 -82 -123 -153 -235
-159 -248 -6 -13 -16 -24 -21 -24 -6 0 -7 -3 -4 -7 4 -3 1 -13 -6 -22 -20 -23
-107 -170 -107 -180 0 -4 31 -24 68 -44 l68 -35 17 21 c9 12 17 25 17 30 0 10
160 281 217 367 24 36 47 72 53 80 84 128 230 343 251 371 16 20 29 41 29 47
0 6 4 12 8 14 5 2 23 26 42 53 18 28 36 52 40 55 3 3 14 18 25 34 22 32 49 69
83 114 l22 30 -57 41 c-56 40 -83 50 -83 33z"/>
<path d="M1009 1942 c-1 -4 -2 -56 -3 -117 l-1 -110 -52 -6 c-67 -9 -75 -14
-63 -45 6 -14 10 -40 10 -57 0 -49 10 -57 53 -47 41 9 58 -6 51 -45 -2 -11 -6
-132 -8 -270 -6 -268 0 -319 43 -404 58 -112 143 -151 339 -155 161 -4 233 17
312 90 35 33 69 86 68 108 0 5 6 12 12 16 8 5 -12 19 -51 38 -57 27 -65 29
-74 15 -46 -73 -94 -102 -177 -107 -24 -1 -49 -5 -56 -10 -6 -4 -12 -3 -12 3
0 7 -8 7 -24 1 -13 -5 -26 -6 -29 -3 -3 3 -22 7 -41 8 -79 8 -124 55 -144 150
-7 32 -9 380 -2 380 1 0 3 38 5 85 1 47 3 91 4 98 1 9 52 12 219 12 l218 0 0
70 c-1 76 -12 94 -50 82 -27 -9 -88 -8 -103 1 -6 4 -14 3 -18 -3 -4 -7 -12 -7
-24 0 -10 5 -21 6 -25 2 -12 -11 -216 -9 -217 3 -1 5 -2 57 -3 115 l-1 104
-77 3 c-43 1 -79 -1 -79 -5z"/>
<path d="M169 1909 c-58 -22 -112 -69 -139 -121 -45 -83 -27 -206 41 -278 49
-51 89 -68 178 -75 74 -6 173 47 207 110 10 19 21 35 25 35 7 0 8 6 12 85 2
33 1 65 -2 70 -3 6 -6 12 -7 15 -4 22 -29 68 -44 82 -10 10 -22 24 -27 31 -14
23 -104 58 -154 61 -26 1 -67 -5 -90 -15z m112 -134 c37 -7 69 -52 69 -96 0
-91 -109 -134 -171 -68 -42 45 -41 100 3 140 17 17 37 28 45 25 7 -3 13 -1 13
5 0 6 4 7 10 4 5 -3 19 -8 31 -10z"/>
<path d="M1844 1718 c-11 -13 -30 -40 -42 -60 -13 -20 -28 -38 -35 -41 -7 -2
8 -24 36 -53 26 -27 48 -53 49 -59 0 -5 4 -18 10 -28 6 -12 6 -23 -1 -31 -6
-7 -8 -16 -4 -20 11 -10 10 -229 0 -243 -5 -7 -6 -13 -1 -13 11 0 11 -210 1
-227 -5 -7 -4 -13 0 -13 5 0 8 -54 7 -120 l0 -120 78 0 c55 0 78 4 79 13 0 6
0 145 1 307 0 162 3 300 6 305 4 6 7 16 9 24 1 8 5 17 10 20 4 3 14 18 22 34
8 15 18 27 23 27 4 0 8 5 8 11 0 16 70 79 113 101 21 10 53 20 71 22 18 2 37
5 42 8 11 5 18 4 62 -6 22 -5 32 -13 32 -27 0 -10 3 -19 8 -19 4 0 7 -20 7
-45 -1 -25 4 -45 10 -46 15 -1 118 -1 134 0 11 1 13 16 8 74 -12 163 -77 230
-221 228 -90 -2 -126 -6 -126 -14 0 -4 -4 -6 -8 -3 -11 7 -121 -46 -147 -70
-66 -60 -62 -59 -79 -26 -18 35 -118 132 -136 132 -3 0 -15 -10 -26 -22z"/>
<path d="M601 1170 c-21 -8 -46 -21 -55 -29 -9 -7 -16 -10 -16 -6 0 13 -70
-69 -70 -82 0 -7 -5 -13 -12 -13 -6 0 -8 -3 -5 -6 3 -4 2 -15 -4 -25 -17 -32
-13 -123 8 -170 18 -39 54 -83 95 -115 26 -20 90 -37 139 -35 50 1 129 27 129
42 0 5 6 9 13 9 39 0 104 133 99 204 -2 39 -34 122 -56 148 -28 32 -101 79
-110 71 -3 -4 -6 -1 -6 5 0 6 -8 11 -17 11 -10 0 -35 1 -56 3 -21 2 -55 -3
-76 -12z m104 -140 c8 0 26 -11 40 -24 30 -28 41 -98 19 -117 -8 -6 -12 -15
-9 -19 13 -22 -93 -45 -128 -28 -44 23 -66 92 -42 139 17 31 70 62 93 54 8 -3
20 -5 27 -5z"/>
</g>
</svg>
